<svg width="12" height="13" viewBox="0 0 12 13" fill="none" xmlns="http://www.w3.org/2000/svg">
<path d="M5.99988 11.5001C8.75988 11.5001 10.9999 9.26006 10.9999 6.50006C10.9999 3.74006 8.75988 1.50006 5.99988 1.50006C3.23988 1.50006 0.999878 3.74006 0.999877 6.50006C0.999877 9.26006 3.23988 11.5001 5.99988 11.5001ZM5.49988 4.50006C5.49988 4.22392 5.72374 4.00006 5.99988 4.00006C6.27602 4.00006 6.49988 4.22392 6.49988 4.50006C6.49988 4.7762 6.27602 5.00006 5.99988 5.00006C5.72374 5.00006 5.49988 4.7762 5.49988 4.50006ZM5.49988 6.50006C5.49988 6.22392 5.72374 6.00006 5.99988 6.00006C6.27602 6.00006 6.49988 6.22392 6.49988 6.50006L6.49988 8.50006C6.49988 8.7762 6.27602 9.00006 5.99988 9.00006C5.72374 9.00006 5.49988 8.7762 5.49988 8.50006L5.49988 6.50006Z" fill="#727383"/>
</svg>
