<svg width="16" height="16" viewBox="0 0 16 16" fill="none" xmlns="http://www.w3.org/2000/svg">
<path d="M6 11L10 11" stroke="#727383" stroke-width="1.5" stroke-linecap="round"/>
<path d="M6 7.5L10 7.5" stroke="#727383" stroke-width="1.5" stroke-linecap="round"/>
<path d="M10.4276 1.89483L10.0587 2.54782L10.4276 1.89483ZM10.0587 2.54782C10.1745 2.61328 10.25 2.73581 10.25 2.875H11.75C11.75 2.17321 11.3641 1.56252 10.7965 1.24184L10.0587 2.54782ZM10.25 2.875C10.25 3.08211 10.0821 3.25 9.875 3.25V4.75C10.9105 4.75 11.75 3.91053 11.75 2.875H10.25ZM9.875 3.25H6.125V4.75H9.875V3.25ZM6.125 3.25C5.91789 3.25 5.75 3.08211 5.75 2.875H4.25C4.25 3.91053 5.08947 4.75 6.125 4.75V3.25ZM5.75 2.875C5.75 2.73581 5.82549 2.61328 5.94134 2.54782L5.2035 1.24184C4.63591 1.56252 4.25 2.17321 4.25 2.875H5.75ZM6.83547 1.96879C6.99867 1.83183 7.20755 1.75 7.4375 1.75V0.25C6.8419 0.25 6.29446 0.464579 5.87119 0.819809L6.83547 1.96879ZM7.4375 1.75H8.5625V0.25H7.4375V1.75ZM8.5625 1.75C8.79245 1.75 9.00133 1.83183 9.16453 1.96879L10.1288 0.819809C9.70554 0.464579 9.1581 0.25 8.5625 0.25V1.75ZM5.94134 2.54782C6.18668 2.40922 6.53668 2.21955 6.83547 1.96879L5.87119 0.819809C5.70159 0.962146 5.49057 1.07966 5.2035 1.24184L5.94134 2.54782ZM10.7965 1.24184C10.5094 1.07966 10.2984 0.962146 10.1288 0.819809L9.16453 1.96879C9.46332 2.21955 9.81332 2.40922 10.0587 2.54782L10.7965 1.24184Z" fill="#727383"/>
<path fill-rule="evenodd" clip-rule="evenodd" d="M2.55556 5.88889C2.55556 4.60022 3.60022 3.55556 4.88889 3.55556H5.22222L6 2H4.88889C2.74111 2 1 3.74111 1 5.88889V12.1111C1 14.2589 2.74111 16 4.88889 16H11.1111C13.2589 16 15 14.2589 15 12.1111V5.88889C15 3.74111 13.2589 2 11.1111 2H10L10.7778 3.55556H11.1111C12.3998 3.55556 13.4444 4.60022 13.4444 5.88889V12.1111C13.4444 13.3998 12.3998 14.4444 11.1111 14.4444H4.88889C3.60022 14.4444 2.55556 13.3998 2.55556 12.1111V5.88889Z" fill="#727383"/>
</svg>
