<svg width="16" height="16" viewBox="0 0 16 16" fill="none" xmlns="http://www.w3.org/2000/svg">
<path d="M8.5 16C9.39375 16 10.125 15.2615 10.125 14.359H6.875C6.875 15.2615 7.60625 16 8.5 16ZM13.375 11.0769V6.97436C13.375 4.45538 12.0506 2.34667 9.71875 1.78872V1.23077C9.71875 0.549744 9.17438 0 8.5 0C7.82562 0 7.28125 0.549744 7.28125 1.23077V1.78872C4.9575 2.34667 3.625 4.44718 3.625 6.97436V11.0769L2.27048 12.4448C2.0972 12.6198 2 12.8561 2 13.1024C2 13.3432 2.19525 13.5385 2.43611 13.5385H14.5639C14.8047 13.5385 15 13.3432 15 13.1024C15 12.8561 14.9028 12.6198 14.7295 12.4448L13.375 11.0769ZM11.9344 11.8974H5.06954V6.97436C5.06954 4.93949 6.47687 3.08763 8.5 3.08763C10.5231 3.08763 11.9344 4.93949 11.9344 6.97436V11.8974Z" fill="#727383"/>
</svg>
